<svg xmlns="http://www.w3.org/2000/svg" viewBox="0 0 32 32" fill="none">
  <path
    d="M16 3C8.82 3 3 8.82 3 16c0 2.27.58 4.41 1.61 6.27L3 29l6.93-1.58A12.95 12.95 0 0 0 16 29c7.18 0 13-5.82 13-13S23.18 3 16 3Z"
    stroke="#141124"
    stroke-width="2.4"
    stroke-linecap="round"
    stroke-linejoin="round"
  />
  <path
    d="M21.08 18.68c-.27-.14-1.6-.79-1.85-.88-.25-.09-.43-.14-.62.14-.18.27-.71.88-.87 1.06-.16.18-.32.2-.59.07-.27-.14-1.16-.42-2.2-1.35-.81-.72-1.36-1.61-1.52-1.88-.16-.27-.02-.42.12-.56.12-.12.27-.32.41-.48.14-.16.18-.27.27-.45.09-.18.05-.34-.02-.48-.07-.14-.62-1.5-.85-2.06-.22-.53-.44-.46-.62-.47h-.53c-.18 0-.48.07-.73.34-.25.27-.96.94-.96 2.29 0 1.35.98 2.65 1.11 2.83.14.18 1.92 2.93 4.65 4.11.65.28 1.16.45 1.56.57.66.21 1.26.18 1.73.11.53-.08 1.6-.65 1.83-1.28.23-.63.23-1.17.16-1.28-.07-.11-.25-.18-.52-.32Z"
    fill="#141124"
  />
</svg>

